HIERARCHY
ROOT Hips
{
	OFFSET 0.000000 0.000000 0.000000
	CHANNELS 6 Xposition Yposition Zposition Zrotation Yrotation Xrotation 
	JOINT LowerBack
	{
		OFFSET 0.000000 0.000000 0.000000
		CHANNELS 3 Zrotation Yrotation Xrotation
		JOINT Spine
		{
			OFFSET 0.028270 2.035590 -0.193380
			CHANNELS 3 Zrotation Yrotation Xrotation
			JOINT Spine1
			{
				OFFSET 0.056720 2.048850 -0.042750
				CHANNELS 3 Zrotation Yrotation Xrotation
				JOINT Neck
				{
					OFFSET 0.000000 0.000000 0.000000
					CHANNELS 3 Zrotation Yrotation Xrotation
					JOINT Neck1
					{
						OFFSET -0.054170 1.746240 0.172020
						CHANNELS 3 Zrotation Yrotation Xrotation
						JOINT Head
						{
							OFFSET 0.104070 1.761360 -0.123970
							CHANNELS 3 Zrotation Yrotation Xrotation
							End Site
							{
								OFFSET 0.000000 0.000000 0.000000
							}
						}
					}
				}
				JOINT LeftShoulder
				{
					OFFSET 0.000000 0.000000 0.000000
					CHANNELS 3 Zrotation Yrotation Xrotation
					JOINT LeftArm
					{
						OFFSET 3.362410 1.200890 -0.311210
						CHANNELS 3 Zrotation Yrotation Xrotation
						JOINT LeftForeArm
						{
							OFFSET 4.983000 -0.000000 -0.000000
							CHANNELS 3 Zrotation Yrotation Xrotation
							JOINT LeftHand
							{
								OFFSET 3.483560 -0.000000 -0.000000
								CHANNELS 3 Zrotation Yrotation Xrotation
								JOINT LeftFingerBase
								{
									OFFSET 0.000000 0.000000 0.000000
									CHANNELS 3 Zrotation Yrotation Xrotation
									JOINT LeftHandIndex1
									{
										OFFSET 0.715260 -0.000000 -0.000000
										CHANNELS 3 Zrotation Yrotation Xrotation
										End Site
										{
											OFFSET 0.000000 0.000000 0.000000
										}
									}
								}
								JOINT LThumb
								{
									OFFSET 0.000000 0.000000 0.000000
									CHANNELS 3 Zrotation Yrotation Xrotation
									End Site
									{
										OFFSET 0.000000 0.000000 0.000000
									}
								}
							}
						}
					}
				}
				JOINT RightShoulder
				{
					OFFSET 0.000000 0.000000 0.000000
					CHANNELS 3 Zrotation Yrotation Xrotation
					JOINT RightArm
					{
						OFFSET -3.136600 1.374050 -0.404650
						CHANNELS 3 Zrotation Yrotation Xrotation
						JOINT RightForeArm
						{
							OFFSET -5.241900 -0.000000 -0.000000
							CHANNELS 3 Zrotation Yrotation Xrotation
							JOINT RightHand
							{
								OFFSET -3.444170 -0.000000 -0.000000
								CHANNELS 3 Zrotation Yrotation Xrotation
								JOINT RightFingerBase
								{
									OFFSET 0.000000 0.000000 0.000000
									CHANNELS 3 Zrotation Yrotation Xrotation
									JOINT RightHandIndex1
									{
										OFFSET -0.622530 -0.000000 -0.000000
										CHANNELS 3 Zrotation Yrotation Xrotation
										End Site
										{
											OFFSET 0.000000 0.000000 0.000000
										}
									}
								}
								JOINT RThumb
								{
									OFFSET 0.000000 0.000000 0.000000
									CHANNELS 3 Zrotation Yrotation Xrotation
									End Site
									{
										OFFSET 0.000000 0.000000 0.000000
									}
								}
							}
						}
					}
				}
			}
		}
	}
}
}
MOTION
Frames: 9
Frame Time: 0.008333
2.428574 17.388463 0.803683 -0.206178 -51.021130 2.552472 -4.019505 3.116650 -7.685316 -1.759613 3.250998 -4.138858 -4.438863 3.273057 -0.291309 -2.166201 -3.400538 -6.920629 -1.536012 -0.122065 0.195316 0.000000 0.000000 0.000000 8.508620 11.755607 -2.414187 -36.034329 -29.494324 -4.884082 179.421852 -55.427952 -179.977866 -4.279576 -5.982627 0.273773 0.345452 0.838743 0.000000 0.000000 0.000000 0.000000 0.000000 0.000000 0.000000 -6.343104 2.559697 4.447960 -4.052196 39.092288 -36.619606 0.299965 -2.631463 -0.052040 -11.875547 1.790923 -0.223034 0.307968 -0.297775 -0.000000 0.000000 0.000000 0.000000 0.000000 0.000000 0.000000 
2.406799 17.391400 0.802876 -0.436352 -50.600160 2.996510 -4.053152 2.866562 -7.844701 -1.726637 3.005458 -4.138127 -4.375954 3.029936 -0.155737 -2.071636 -5.206890 -7.444141 -1.263798 -0.095198 0.059830 0.000000 0.000000 0.000000 8.636705 11.883494 -2.209543 -34.739790 -26.389668 -5.773581 179.474523 -53.973920 -179.979562 -4.118691 -6.054589 0.266318 0.334628 0.836584 0.000000 0.000000 0.000000 0.000000 0.000000 0.000000 0.000000 -7.549412 1.070245 4.001606 -1.255078 41.105988 -39.784295 -0.225285 0.546680 -0.056076 -11.822467 4.079518 -0.470774 0.263273 -0.364655 -0.000000 0.000000 0.000000 0.000000 0.000000 0.000000 0.000000 
2.386516 17.392590 0.805993 -0.615693 -50.038399 3.429909 -4.053011 2.529494 -8.026516 -1.703793 2.661404 -4.164145 -4.418383 2.689905 -0.073353 -1.795218 -6.891390 -7.870326 -1.043888 -0.073200 -0.047946 0.000000 0.000000 0.000000 8.554414 11.882198 -1.915003 -32.978327 -22.977608 -6.868228 179.593060 -52.504458 -179.980969 -3.919149 -6.137388 0.256373 0.317449 0.836949 0.000000 0.000000 0.000000 0.000000 0.000000 0.000000 0.000000 -8.453930 -0.284046 3.385437 2.903216 41.781358 -37.015139 -0.636194 7.875186 -0.063610 -11.252937 4.344170 -0.477553 0.213641 -0.409823 -0.000000 0.000000 0.000000 0.000000 0.000000 0.000000 0.000000 
2.367226 17.391731 0.812419 -0.772094 -49.387732 3.832233 -4.129110 2.107881 -8.268063 -1.718150 2.230822 -4.244139 -4.557297 2.258473 -0.094586 -1.151939 -7.691258 -8.092146 -1.021720 -0.069094 -0.101996 0.000000 0.000000 0.000000 8.596199 11.740802 -1.540203 -31.175465 -19.269049 -7.899600 179.783571 -51.098460 -179.981377 -3.752658 -6.215797 0.247830 0.296362 0.837601 -0.000000 0.000000 0.000000 0.000000 0.000000 0.000000 0.000000 -8.154221 -0.838227 2.822091 5.918381 40.196021 -29.699373 -0.816409 18.277725 -0.075992 -11.549602 2.510830 -0.301582 0.190806 -0.423079 -0.000000 0.000000 0.000000 0.000000 0.000000 0.000000 0.000000 
2.349124 17.388551 0.820518 -0.873582 -48.705771 4.175692 -4.230752 1.628099 -8.517132 -1.733765 1.743733 -4.355845 -4.694749 1.763038 -0.209301 -0.474319 -7.732671 -8.144376 -1.103880 -0.075878 -0.109330 0.000000 0.000000 0.000000 8.515218 11.600629 -1.106576 -29.285407 -15.475217 -8.863654 -179.988390 -49.884592 -179.981249 -3.615387 -6.300895 0.240800 0.273123 0.835567 0.000000 0.000000 0.000000 0.000000 0.000000 0.000000 0.000000 -7.317554 -0.690807 2.301031 7.626628 37.558113 -24.551102 -0.916418 29.126735 -0.087204 -12.120583 1.002874 -0.154214 0.170104 -0.432387 -0.000000 0.000000 0.000000 0.000000 0.000000 0.000000 0.000000 
2.332381 17.382910 0.828733 -0.903306 -48.037569 4.444987 -4.326994 1.134627 -8.722706 -1.747891 1.242805 -4.458324 -4.839212 1.250841 -0.332736 0.141696 -7.616774 -8.150772 -1.205671 -0.085072 -0.103086 0.000000 0.000000 0.000000 8.240808 11.641651 -0.675465 -27.325254 -11.950175 -9.742906 -179.767569 -49.000948 -179.980808 -3.521399 -6.391966 0.236477 0.251081 0.829484 -0.000000 0.000000 0.000000 0.000000 0.000000 0.000000 0.000000 -6.364578 -0.418374 1.774962 8.754742 35.068931 -21.711578 -0.942667 39.120857 -0.093374 -12.404645 0.363522 -0.088286 0.146488 -0.442905 -0.000000 0.000000 0.000000 0.000000 0.000000 0.000000 0.000000 
2.316314 17.375022 0.836197 -0.874753 -47.420024 4.644727 -4.443291 0.664661 -8.874675 -1.766660 0.768247 -4.530159 -4.979146 0.764339 -0.401357 0.709517 -7.667430 -8.179795 -1.287748 -0.092420 -0.102506 0.000000 0.000000 0.000000 7.892182 11.930185 -0.294927 -25.499162 -8.917054 -10.469559 -179.577321 -48.501299 -179.979841 -3.510325 -6.465220 0.236847 0.233692 0.818859 -0.000000 0.000000 0.000000 0.000000 0.000000 0.000000 0.000000 -5.445499 -0.348439 1.245613 9.711024 33.013700 -20.131480 -0.892560 48.125307 -0.095608 -12.395711 0.228490 -0.074210 0.123914 -0.452273 -0.000000 0.000000 0.000000 0.000000 0.000000 0.000000 0.000000 
2.300058 17.365419 0.842580 -0.811650 -46.883975 4.790867 -4.603771 0.245571 -8.982345 -1.792946 0.350655 -4.568960 -5.093119 0.334670 -0.396543 1.246116 -7.960489 -8.245898 -1.336613 -0.096572 -0.112032 0.000000 0.000000 0.000000 7.603756 12.417180 0.013274 -24.000617 -6.418592 -11.009285 -179.422274 -48.345946 -179.978179 -3.607793 -6.489308 0.242698 0.222824 0.803649 -0.000000 0.000000 0.000000 0.000000 0.000000 0.000000 0.000000 -4.630370 -0.557821 0.730296 10.695631 31.257034 -19.211233 -0.772382 56.358000 -0.095773 -12.227135 0.233779 -0.074378 0.105179 -0.459159 -0.000000 0.000000 0.000000 0.000000 0.000000 0.000000 0.000000 
2.282841 17.354743 0.847828 -0.725368 -46.446844 4.902951 -4.820695 -0.106857 -9.059276 -1.827839 0.007720 -4.578490 -5.168293 -0.020152 -0.316662 1.758737 -8.504649 -8.355106 -1.344025 -0.096747 -0.133591 0.000000 0.000000 0.000000 7.441499 13.054769 0.243979 -22.904763 -4.458420 -11.375105 -179.298993 -48.470015 -179.975990 -3.801352 -6.460251 0.253127 0.218039 0.785225 -0.000000 0.000000 0.000000 0.000000 0.000000 0.000000 0.000000 -3.982959 -1.053842 0.239537 11.858069 29.628353 -18.668453 -0.591773 64.040171 -0.095024 -12.001520 0.182122 -0.067877 0.091439 -0.463388 -0.000000 0.000000 0.000000 0.000000 0.000000 0.000000 0.000000 
